<svg width="209" height="126" viewBox="0 0 209 126" fill="none" xmlns="http://www.w3.org/2000/svg">
<path d="M96.2676 15.5029C118.257 10.6358 143.535 16.835 168.729 45.1006L169.93 46.4639L170.314 46.9062L170.504 47.4609C171.252 49.6464 173.299 52.2867 174.68 59.8291C176.086 67.5107 177.166 81.1599 177.166 108.433V111.837L173.788 111.408C161.837 109.893 143.15 106.565 125.846 101.485C117.195 98.9458 108.812 95.9462 101.761 92.4775C97.015 90.143 92.7247 87.5241 89.3545 84.585C85.9662 93.499 75.565 104.096 52.5107 105.774C52.158 108.555 51.1752 111.82 49.1406 114.745C46.2214 118.942 41.2958 122.202 33.7568 122.431L33.5557 122.437L33.3545 122.416C28.8421 121.946 22.3748 119.831 17.5205 114.867C12.514 109.748 9.5508 101.926 11.7217 90.8545L11.7529 90.6973L11.8008 90.543C12.617 87.913 14.2708 83.8871 16.6484 80.1572C18.5512 77.1723 21.1382 74.0266 24.4189 72.1426C24.1158 68.1707 24.7068 63.0893 27.3975 58.6318C30.6293 53.2778 36.5854 49.3262 46.1973 48.9619C57.1718 35.3653 74.8364 20.2466 96.2676 15.5029Z" fill="#F16C9B" stroke="#653F3E" stroke-width="6"/>
</svg>
