<svg width="288" height="359" viewBox="0 0 288 359" fill="none" xmlns="http://www.w3.org/2000/svg">
<path d="M131.268 15.5029C153.257 10.6358 178.535 16.835 203.729 45.1006L204.93 46.4639L205.314 46.9062L205.504 47.4609C206.252 49.6464 208.299 52.2867 209.68 59.8291C211.086 67.5107 212.166 81.1599 212.166 108.433V111.837L208.788 111.408C196.837 109.893 178.15 106.565 160.846 101.485C152.195 98.9458 143.812 95.9462 136.761 92.4775C132.015 90.143 127.725 87.5241 124.354 84.585C120.966 93.499 110.565 104.096 87.5107 105.774C87.158 108.555 86.1752 111.82 84.1406 114.745C81.2214 118.942 76.2958 122.202 68.7568 122.431L68.5557 122.437L68.3545 122.416C63.8421 121.946 57.3748 119.831 52.5205 114.867C47.514 109.748 44.5508 101.926 46.7217 90.8545L46.7529 90.6973L46.8008 90.543C47.617 87.913 49.2708 83.8871 51.6484 80.1572C53.5512 77.1723 56.1382 74.0266 59.4189 72.1426C59.1158 68.1707 59.7068 63.0893 62.3975 58.6318C65.6293 53.2778 71.5854 49.3262 81.1973 48.9619C92.1718 35.3653 109.836 20.2466 131.268 15.5029Z" fill="#F16C9B" stroke="#653F3E" stroke-width="6"/>
</svg>
