<svg width="288" height="359" viewBox="0 0 288 359" fill="none" xmlns="http://www.w3.org/2000/svg">
<g clip-path="url(#clip0_156_347)">
<path d="M145.8 209C158.061 209 168 218.939 168 231.2V245.5C168 258.479 157.479 269 144.5 269C131.521 269 121 258.479 121 245.5V231.2C121 218.939 130.939 209 143.2 209H145.8Z" fill="#FF0000" stroke="#653F3E" stroke-width="6"/>
<path d="M144.5 43C181.227 43 211 72.7731 211 109.5V166.5C211 203.227 181.227 233 144.5 233C107.773 233 78 203.227 78 166.5V109.5C78 72.7731 107.773 43 144.5 43Z" fill="#FF0000" stroke="#653F3E" stroke-width="6"/>
</g>
<defs>
<clipPath id="clip0_156_347">
<rect width="139" height="232" fill="white" transform="translate(75 40)"/>
</clipPath>
</defs>
</svg>
